HIERARCHY
ROOT Hips
{
 OFFSET 0.000000 0.000000 0.000000
 CHANNELS 6 Xposition Yposition Zposition Yrotation Xrotation Zrotation
 JOINT Chest
 {
  OFFSET 0.000000 10.080317 -0.001081
  CHANNELS 3 Yrotation Xrotation Zrotation
  JOINT Chest2
  {
   OFFSET 0.000000 11.096852 0.001963
   CHANNELS 3 Yrotation Xrotation Zrotation
   JOINT Chest3
   {
    OFFSET 0.000000 10.026525 0.000000
    CHANNELS 3 Yrotation Xrotation Zrotation
    JOINT Chest4
    {
     OFFSET 0.000000 10.026525 0.000000
     CHANNELS 3 Yrotation Xrotation Zrotation
     JOINT Neck
     {
      OFFSET 0.000000 14.108171 0.000000
      CHANNELS 3 Yrotation Xrotation Zrotation
      JOINT Head
      {
       OFFSET 0.000000 9.333493 0.004668
       CHANNELS 3 Yrotation Xrotation Zrotation
       End Site
       {
        OFFSET 0.000000 17.851786 0.002438
       }
      }
     }
     JOINT RightCollar
     {
      OFFSET -3.071622 7.873185 0.000000
      CHANNELS 3 Yrotation Xrotation Zrotation
      JOINT RightShoulder
      {
       OFFSET -14.378659 0.000000 0.000000
       CHANNELS 3 Yrotation Xrotation Zrotation
       JOINT RightElbow
       {
        OFFSET -30.778728 0.000000 0.000000
        CHANNELS 3 Yrotation Xrotation Zrotation
        JOINT RightWrist
        {
         OFFSET -25.164217 0.000000 0.000000
         CHANNELS 3 Yrotation Xrotation Zrotation
         End Site
         {
          OFFSET -18.796788 0.000000 0.000000
         }
        }
       }
      }
     }
     JOINT LeftCollar
     {
      OFFSET 3.071622 7.873185 0.000000
      CHANNELS 3 Yrotation Xrotation Zrotation
      JOINT LeftShoulder
      {
       OFFSET 14.378659 0.000000 0.000000
       CHANNELS 3 Yrotation Xrotation Zrotation
       JOINT LeftElbow
       {
        OFFSET 30.778728 0.000000 0.000000
        CHANNELS 3 Yrotation Xrotation Zrotation
        JOINT LeftWrist
        {
         OFFSET 25.164217 0.000000 0.000000
         CHANNELS 3 Yrotation Xrotation Zrotation
         End Site
         {
          OFFSET 18.796788 0.000000 0.000000
         }
        }
       }
      }
     }
    }
   }
  }
 }
 JOINT RightHip
 {
  OFFSET -8.194923 0.005295 0.000540
  CHANNELS 3 Yrotation Xrotation Zrotation
  JOINT RightKnee
  {
   OFFSET 0.000000 -42.473320 -0.000511
   CHANNELS 3 Yrotation Xrotation Zrotation
   JOINT RightAnkle
   {
    OFFSET 0.000000 -41.474259 -0.000865
    CHANNELS 3 Yrotation Xrotation Zrotation
    JOINT RightToe
    {
     OFFSET 0.000000 -7.354994 16.712725
     CHANNELS 3 Yrotation Xrotation Zrotation
     End Site
     {
      OFFSET 0.000000 -1.553903 6.764158
     }
    }
   }
  }
 }
 JOINT LeftHip
 {
  OFFSET 8.194923 0.005295 0.000540
  CHANNELS 3 Yrotation Xrotation Zrotation
  JOINT LeftKnee
  {
   OFFSET 0.000000 -42.473320 -0.000511
   CHANNELS 3 Yrotation Xrotation Zrotation
   JOINT LeftAnkle
   {
    OFFSET 0.000000 -41.474259 -0.000865
    CHANNELS 3 Yrotation Xrotation Zrotation
    JOINT LeftToe
    {
     OFFSET 0.000000 -7.354994 16.712725
     CHANNELS 3 Yrotation Xrotation Zrotation
     End Site
     {
      OFFSET 0.000000 -1.553903 6.764158
     }
    }
   }
  }
 }
}
MOTION
Frames: 14
Frame Time: 0.016667
0.000000 91.111157 0.000000 0.000000 -5.826342 0.000000 0.000000 11.116423 0.000000 0.000000 -5.290081 0.000000 0.000000 0.000000 0.000000 0.000000 0.000000 0.000000 0.000000 12.665069 0.000000 0.000000 0.575450 0.000000 0.000000 0.000000 0.000000 0.000000 0.000000 0.000000 2.337306 0.000000 0.000000 -2.337306 0.000000 0.000000 0.000000 0.000000 0.000000 0.000000 0.000000 0.000000 -2.337306 0.000000 0.000000 2.337306 0.000000 0.000000 0.000000 8.578828 0.000000 0.000000 1.905768 0.000000 0.000000 -4.658254 0.000000 0.000000 0.000000 0.000000 0.000000 8.578828 0.000000 0.000000 1.905768 0.000000 0.000000 -4.658254 0.000000 0.000000 0.000000 0.000000
-52.074044 92.487758 70.128278 -1.734340 -5.147420 -0.004330 -0.050213 3.294682 -0.583839 -0.036365 1.466398 -0.277161 -0.036365 1.466398 -0.277161 -0.026607 1.099815 -0.207772 0.681200 17.187069 0.741703 1.002807 -4.268784 1.135652 -3.711968 -0.990385 10.560096 -5.283152 -3.383005 72.200515 17.417713 19.824298 9.990098 -7.119732 2.635490 -4.830580 -4.059880 -0.426814 -5.203231 -2.092394 -10.564512 -71.218013 -18.881167 25.221716 -21.215632 4.037616 5.985967 16.008714 -5.751151 7.968377 -5.246254 0.255108 1.959094 -1.076473 -7.062826 -3.810278 5.551375 0.007680 0.035045 -0.017960 4.537013 11.173137 5.205323 -2.068791 2.330406 -0.033466 2.179896 -7.008796 -4.233410 -0.000964 -0.075900 -0.005748
-52.062430 92.484105 70.155385 -1.758746 -5.124899 -0.005485 -0.062487 3.298727 -0.580869 -0.040858 1.467433 -0.274331 -0.040858 1.467433 -0.274331 -0.029983 1.100593 -0.205639 0.694005 17.213650 0.761010 1.019906 -4.219495 1.166984 -3.684456 -0.972644 10.562490 -5.246662 -3.398588 72.249916 17.427074 19.820809 9.972408 -7.129417 2.626239 -4.955440 -4.065823 -0.405373 -5.226542 -2.172119 -10.570388 -71.271627 -19.291052 25.146652 -21.567322 3.996108 5.979937 16.006809 -5.740491 7.954692 -5.241610 0.275603 1.973086 -1.087218 -7.113594 -3.837055 5.568128 0.005367 0.038824 -0.014740 4.480254 11.144577 5.193002 -2.046023 2.399567 -0.061199 2.240102 -7.055345 -4.205549 -0.001559 -0.073945 -0.010899
-52.052865 92.480820 70.181789 -1.784154 -5.109616 -0.002102 -0.069524 3.293723 -0.581829 -0.044032 1.465675 -0.274717 -0.044032 1.465675 -0.274717 -0.032363 1.099276 -0.205921 0.699941 17.251003 0.781867 1.023826 -4.150179 1.203579 -3.680698 -0.932832 10.569170 -5.238434 -3.416305 72.281504 17.432536 19.815684 9.956874 -7.110959 2.615807 -5.039268 -4.079399 -0.356454 -5.243324 -2.289348 -10.565719 -71.300516 -19.652343 25.067027 -21.898559 3.925793 5.974583 16.019540 -5.731939 7.944984 -5.260835 0.299682 1.986296 -1.077094 -7.095738 -3.867623 5.578741 0.008615 0.041379 -0.013076 4.439033 11.119382 5.176468 -2.047547 2.472337 -0.074377 2.304485 -7.098340 -4.192701 -0.001454 -0.075182 -0.011934
-52.040658 92.478584 70.216592 -1.809721 -5.094544 0.003711 -0.080642 3.301560 -0.579291 -0.049510 1.468059 -0.272678 -0.049510 1.468059 -0.272678 -0.036475 1.101067 -0.204378 0.711754 17.281398 0.792313 1.042184 -4.093791 1.218881 -3.664947 -0.905254 10.565005 -5.247410 -3.440195 72.297147 17.437738 19.754657 9.965978 -7.072628 2.614225 -5.086150 -4.085500 -0.329402 -5.253774 -2.428106 -10.539190 -71.356134 -19.932984 24.998340 -22.145701 3.863987 5.997848 16.013993 -5.718283 7.952500 -5.274106 0.318161 1.979054 -1.065660 -7.116242 -3.890105 5.575370 0.006815 0.042240 -0.006195 4.426413 11.106193 5.170733 -2.051278 2.525780 -0.104107 2.335646 -7.133387 -4.171180 -0.000253 -0.078481 -0.010354
-52.033702 92.477644 70.252301 -1.837148 -5.074754 0.004632 -0.094458 3.304766 -0.570745 -0.055249 1.469540 -0.269819 -0.055249 1.469540 -0.269819 -0.040785 1.102180 -0.202221 0.717440 17.308631 0.797959 1.050865 -4.043247 1.227419 -3.660030 -0.883768 10.549437 -5.256440 -3.451435 72.310485 17.454068 19.709396 9.977578 -7.056502 2.617188 -5.108773 -4.095626 -0.303108 -5.271369 -2.592123 -10.516304 -71.406607 -20.141955 24.945107 -22.341723 3.822668 6.004375 16.009308 -5.683595 7.958411 -5.278855 0.332532 1.969448 -1.060032 -7.151367 -3.906517 5.583206 0.008050 0.040297 -0.005059 4.400707 11.086715 5.171132 -2.035428 2.584630 -0.137087 2.366058 -7.169490 -4.151000 -0.000745 -0.083075 -0.009435
-52.024707 92.478705 70.294247 -1.868334 -5.047339 0.003706 -0.114479 3.313045 -0.565926 -0.063661 1.473089 -0.266928 -0.063661 1.473089 -0.266928 -0.047099 1.104845 -0.200031 0.727131 17.338571 0.803566 1.066972 -3.987691 1.234514 -3.661121 -0.864249 10.538739 -5.218572 -3.449702 72.305860 17.485915 19.710414 10.000396 -7.040666 2.620428 -5.119046 -4.102015 -0.285284 -5.285028 -2.765189 -10.492321 -71.458394 -20.234568 24.904306 -22.452700 3.785359 6.023887 16.019260 -5.633462 7.961424 -5.277754 0.327489 1.959733 -1.058041 -7.182300 -3.917603 5.592395 0.007897 0.030947 -0.003123 4.386677 11.046884 5.179634 -2.009497 2.676003 -0.180339 2.373356 -7.222125 -4.123426 -0.002212 -0.091829 -0.010485
-52.015961 92.478997 70.332434 -1.891376 -5.012561 0.006623 -0.126393 3.315652 -0.567232 -0.068507 1.475174 -0.265766 -0.068507 1.475174 -0.265766 -0.050736 1.106411 -0.199148 0.736785 17.362236 0.808814 1.083106 -3.943787 1.240948 -3.671469 -0.835023 10.528953 -5.202363 -3.456635 72.308376 17.507316 19.707919 10.013509 -7.021731 2.621413 -5.117981 -4.132321 -0.253245 -5.287180 -2.924242 -10.476988 -71.530929 -20.240803 24.916211 -22.469412 3.767053 6.007108 16.001999 -5.607547 7.961063 -5.298620 0.335677 1.934657 -1.029628 -7.203727 -3.925228 5.599691 0.009035 0.024552 -0.009688 4.389405 10.988773 5.185809 -1.986923 2.778715 -0.223747 2.373603 -7.276412 -4.094178 -0.001471 -0.098649 -0.012094
-52.004737 92.476957 70.375908 -1.905555 -4.967848 0.009612 -0.144279 3.317657 -0.567966 -0.076746 1.475446 -0.263416 -0.076746 1.475446 -0.263416 -0.056920 1.106618 -0.197366 0.747860 17.387894 0.820247 1.099748 -3.896198 1.258330 -3.676145 -0.805153 10.499076 -5.182852 -3.429417 72.331078 17.541667 19.660204 10.031602 -7.001971 2.590824 -5.140181 -4.133822 -0.227824 -5.305914 -3.097910 -10.450806 -71.602960 -20.150694 24.931192 -22.388996 3.777321 6.025688 15.974237 -5.613848 7.965328 -5.321979 0.372982 1.888064 -1.007402 -7.208258 -3.937474 5.611010 0.010880 0.023539 -0.015372 4.424035 10.893070 5.210848 -2.007518 2.934403 -0.295695 2.362266 -7.359686 -4.058646 -0.003175 -0.105058 -0.006372
-51.990052 92.471169 70.413771 -1.897414 -4.900268 0.018992 -0.170535 3.320470 -0.564471 -0.087607 1.476556 -0.259851 -0.087607 1.476556 -0.259851 -0.065073 1.107455 -0.194666 0.750212 17.404090 0.825500 1.102361 -3.866139 1.267267 -3.685556 -0.797228 10.444745 -5.173125 -3.408611 72.370310 17.541153 19.595477 10.030422 -6.955627 2.572635 -5.150162 -4.147353 -0.230674 -5.328066 -3.276667 -10.402775 -71.677129 -19.988328 24.937758 -22.270889 3.780451 6.014345 15.982527 -5.622882 7.955665 -5.349928 0.422028 1.827620 -0.981021 -7.278668 -3.953092 5.626459 0.014636 0.032983 -0.023187 4.454154 10.732421 5.220213 -2.033519 3.160273 -0.359425 2.339822 -7.474568 -4.024063 -0.005979 -0.106377 -0.002702
-51.972616 92.465534 70.451497 -1.885689 -4.817409 0.034128 -0.185587 3.331229 -0.573435 -0.094547 1.481065 -0.260091 -0.094547 1.481065 -0.260091 -0.070276 1.110839 -0.194828 0.752614 17.408340 0.838532 1.102345 -3.858276 1.290524 -3.700915 -0.790991 10.413913 -5.184702 -3.406212 72.404405 17.549058 19.535580 10.051329 -6.922568 2.566676 -5.175588 -4.171809 -0.232801 -5.315328 -3.445555 -10.358839 -71.750542 -19.785736 24.935282 -22.115474 3.773612 5.995800 15.991100 -5.620795 7.937341 -5.392672 0.476696 1.752348 -0.934962 -7.371745 -3.961610 5.628830 0.017568 0.040378 -0.024979 4.509264 10.510556 5.234662 -2.071508 3.470966 -0.445935 2.308486 -7.620578 -3.978034 -0.010253 -0.113483 0.000026
-51.955802 92.463270 70.479395 -1.865939 -4.735635 0.042339 -0.218648 3.335243 -0.570767 -0.109250 1.484684 -0.256964 -0.109250 1.484684 -0.256964 -0.081309 1.113560 -0.192447 0.754126 17.402744 0.841901 1.103954 -3.868681 1.296214 -3.667573 -0.765364 10.363034 -5.205806 -3.388854 72.438315 17.576678 19.469320 10.076574 -6.889168 2.572761 -5.194830 -4.161674 -0.224324 -5.340812 -3.627651 -10.292330 -71.797073 -19.531764 24.929808 -21.916623 3.753242 5.968217 15.990670 -5.602003 7.943072 -5.424014 0.515744 1.620632 -0.884679 -7.452950 -3.934482 5.605586 0.021078 0.044553 -0.015518 4.558634 10.278576 5.258857 -2.077205 3.785977 -0.540888 2.245343 -7.750475 -3.923341 -0.012039 -0.124897 0.000502
-51.933305 92.468423 70.510437 -1.845935 -4.665737 0.046603 -0.232995 3.370706 -0.564810 -0.117149 1.500399 -0.251726 -0.117149 1.500399 -0.251726 -0.087239 1.125347 -0.188496 0.734668 17.378147 0.837101 1.069545 -3.914273 1.293973 -3.649145 -0.767377 10.334282 -5.210084 -3.376997 72.485115 17.564142 19.359659 10.046438 -6.843058 2.542262 -5.204020 -4.192403 -0.225650 -5.372000 -3.772073 -10.259582 -71.819942 -19.260607 24.941507 -21.731947 3.753015 5.958435 15.983396 -5.537967 7.966389 -5.444685 0.528327 1.484180 -0.840714 -7.552961 -3.879390 5.579914 0.020320 0.028471 -0.002638 4.616224 10.071393 5.288026 -2.101115 4.072168 -0.639706 2.196053 -7.844935 -3.871626 -0.011045 -0.148294 0.007453
-51.909666 92.482589 70.534661 -1.823717 -4.611145 0.045730 -0.233567 3.400231 -0.564445 -0.117823 1.514628 -0.249642 -0.117823 1.514628 -0.249642 -0.087744 1.136019 -0.186928 0.713737 17.357821 0.837711 1.030567 -3.951930 1.302253 -3.661823 -0.733561 10.328862 -5.189974 -3.364850 72.547462 17.508036 19.180199 9.988581 -6.780319 2.484252 -5.233122 -4.225113 -0.186104 -5.390777 -3.912798 -10.239027 -71.850759 -18.932832 25.008184 -21.521387 3.750549 5.948233 15.991651 -5.473897 8.007432 -5.456119 0.528630 1.326827 -0.810114 -7.609110 -3.784567 5.531407 0.023460 -0.005477 0.028114 4.639387 9.910175 5.329996 -2.098861 4.285537 -0.759450 2.154016 -7.876817 -3.822526 -0.009998 -0.181345 0.023805
